<svg xmlns="http://www.w3.org/2000/svg" viewBox="0 0 1254.000000 1254.000000" preserveAspectRatio="xMidYMid meet" role="img" aria-label="Biene">
  <g transform="translate(0.000000,1254.000000) scale(0.100000,-0.100000)"
fill="#000000" stroke="none">
<path fill="#FBBF24" d="M5630 6607 c0 -27 -98 -315 -165 -482 -36 -90 -65 -168 -65 -174 0
-18 271 -89 455 -118 86 -14 172 -18 390 -18 283 0 332 4 555 46 87 16 318 75
328 83 1 2 -27 77 -64 167 -36 90 -91 241 -122 334 -30 94 -56 171 -56 172 -1
1 -30 -4 -66 -12 -217 -45 -534 -64 -760 -46 -127 10 -363 43 -412 57 -12 3
-18 0 -18 -9z"/>
<path fill="#FBBF24" d="M5036 5161 c-32 -61 -36 -77 -36 -142 0 -79 19 -225 46 -351 l17 -77
136 -56 c208 -86 455 -152 701 -187 146 -20 604 -17 750 5 259 40 470 99 686
190 l121 51 17 76 c24 114 46 277 46 352 0 63 -12 103 -58 185 l-12 22 -157
-55 c-507 -177 -1023 -223 -1547 -138 -198 32 -439 99 -623 172 l-51 21 -36
-68z"/>
<path fill="#FBBF24" d="M5391 3818 c6 -12 34 -53 62 -92 206 -291 480 -526 730 -626 l77 -31
73 31 c217 90 428 252 608 469 84 100 196 258 188 265 -2 3 -54 -10 -114 -29
-146 -44 -331 -81 -501 -101 -315 -37 -734 7 -1033 107 -103 35 -105 35 -90 7z"/>
</g>
  <g transform="translate(0.000000,1254.000000) scale(0.100000,-0.100000)"
fill="#000000" stroke="none">
<path fill="#0F172A" d="M4792 10630 c-126 -64 -178 -189 -136 -331 22 -76 100 -151 180 -175
65 -19 157 -14 207 11 29 14 31 14 95 -32 93 -66 204 -174 272 -264 70 -94
170 -268 173 -301 2 -20 -14 -37 -75 -86 -185 -147 -307 -378 -333 -627 -14
-130 36 -349 107 -475 33 -57 77 -121 92 -131 12 -9 -3 -16 -54 -24 -178 -29
-688 -139 -975 -211 -561 -141 -1109 -337 -1483 -531 -501 -259 -793 -520
-947 -846 -74 -155 -90 -228 -89 -402 0 -136 3 -158 27 -230 99 -296 341 -479
679 -516 165 -18 403 14 561 76 67 26 67 26 67 -82 0 -331 187 -628 481 -768
115 -54 215 -76 351 -78 65 -1 118 -5 118 -8 0 -4 -24 -40 -53 -80 -264 -368
-286 -405 -271 -463 8 -34 59 -76 92 -76 82 0 248 142 375 320 63 89 227 395
227 423 0 7 27 32 60 55 33 24 89 70 125 103 36 34 65 55 65 48 0 -39 22 -204
37 -275 l16 -81 -46 -74 c-63 -101 -129 -243 -237 -509 -50 -124 -121 -295
-157 -380 -104 -243 -109 -276 -51 -325 34 -28 75 -32 117 -10 38 19 114 104
169 189 89 136 130 241 257 659 20 64 39 117 43 117 4 0 20 -35 37 -78 50
-132 200 -421 284 -547 194 -293 433 -533 668 -671 61 -35 63 -38 141 -182 90
-167 178 -311 220 -362 25 -30 32 -33 45 -21 38 31 191 285 272 451 34 68 43
78 99 112 169 100 407 316 548 498 142 183 290 435 373 635 79 188 70 173 83
148 7 -12 37 -109 67 -215 96 -333 164 -487 280 -633 69 -87 108 -115 158
-115 51 0 76 15 93 55 26 63 41 19 -225 659 -123 296 -201 463 -253 544 l-34
53 17 86 c10 47 23 127 29 176 6 50 12 92 14 94 1 1 31 -23 67 -55 35 -31 87
-74 115 -94 42 -31 55 -48 82 -115 42 -102 143 -280 217 -383 32 -44 99 -120
149 -168 135 -130 212 -159 275 -106 26 21 31 33 31 68 0 58 -26 103 -186 332
-74 105 -134 193 -134 195 0 2 46 4 103 5 177 1 320 44 460 138 240 160 360
384 383 712 l6 102 87 -29 c212 -72 474 -94 645 -55 392 90 622 389 603 786
-7 143 -32 243 -97 376 -148 306 -436 561 -915 810 -475 246 -1026 434 -1770
604 -266 60 -711 150 -746 150 -10 0 -19 3 -19 6 0 4 20 37 45 74 126 189 177
412 141 616 -42 241 -168 448 -353 581 l-62 44 23 52 c83 188 287 433 444 535
61 39 64 40 97 26 99 -41 231 -21 309 47 126 111 120 330 -12 423 -60 43 -96
54 -173 55 -143 2 -259 -99 -276 -239 -5 -46 -9 -52 -49 -74 -206 -115 -408
-344 -548 -624 l-46 -91 -57 20 c-78 26 -271 59 -352 59 -122 0 -363 -41 -444
-75 -14 -6 -21 1 -34 36 -95 247 -336 540 -544 661 -52 31 -57 36 -63 76 -8
60 -41 131 -79 170 -50 53 -102 75 -187 79 -69 4 -80 2 -138 -27z m2227 -2903
c140 -233 234 -376 345 -527 434 -591 1011 -1116 1569 -1429 l145 -82 7 -86
c20 -231 -40 -422 -174 -553 -78 -77 -160 -123 -267 -150 -316 -81 -588 83
-914 550 -244 350 -412 711 -581 1250 -89 284 -193 744 -239 1055 -11 77 -23
154 -26 170 -4 17 -4 27 0 24 3 -3 64 -103 135 -222z m-1383 191 c-3 -13 -10
-54 -15 -93 -75 -507 -158 -866 -296 -1280 -253 -761 -680 -1421 -1036 -1601
-231 -116 -503 -72 -684 110 -73 73 -133 171 -155 254 -20 76 -31 205 -24 292
l6 85 101 53 c136 72 347 207 492 315 598 448 1089 1009 1506 1724 91 156 115
188 105 141z m-317 -80 c-308 -481 -809 -1045 -1244 -1399 -451 -368 -906
-615 -1259 -684 -131 -25 -307 -18 -399 18 -256 99 -369 333 -291 603 90 314
393 596 909 849 546 267 1200 467 2215 678 63 13 117 23 119 21 2 -2 -20 -40
-50 -86z m2636 -86 c325 -79 501 -127 750 -208 1007 -328 1589 -732 1695
-1177 73 -304 -76 -551 -370 -613 -106 -22 -274 -14 -402 20 -311 83 -706 298
-1082 590 -363 283 -826 763 -1137 1181 -116 156 -259 361 -259 372 0 13 443
-78 805 -165z m-2197 -1152 c321 -56 720 -54 1041 6 46 9 87 12 91 7 3 -4 24
-62 44 -128 43 -135 129 -366 175 -467 37 -82 46 -75 -143 -123 -438 -112
-847 -123 -1275 -35 -103 22 -288 74 -299 84 -3 3 13 50 36 103 56 133 123
314 167 456 20 64 40 117 43 117 4 0 58 -9 120 -20z m1739 -1448 l34 -75 -11
-136 c-9 -115 -43 -321 -56 -342 -2 -4 -48 -26 -101 -49 -677 -297 -1500 -301
-2189 -10 -55 23 -104 47 -111 53 -17 18 -52 206 -65 351 l-11 128 39 79 c21
43 44 79 51 79 8 0 30 -7 51 -16 71 -31 238 -85 367 -119 444 -118 968 -125
1442 -20 107 24 452 132 491 154 24 14 31 6 69 -77z m-2046 -1328 c132 -45
383 -97 572 -119 91 -10 413 -7 512 5 132 16 369 66 495 104 60 18 110 29 110
24 0 -15 -136 -203 -218 -300 -139 -166 -347 -331 -532 -421 -118 -57 -147
-56 -280 11 -249 124 -489 344 -680 623 -55 80 -66 99 -57 99 2 0 37 -11 78
-26z"/>
</g>
</svg>
