<?xml version="1.0" encoding="UTF-8" standalone="no"?>
<svg
   width="1836"
   height="1336"
   viewBox="0 0 1836 1336"
   version="1.1"
   id="svg4"
   xmlns="http://www.w3.org/2000/svg"
   xmlns:svg="http://www.w3.org/2000/svg">
  <defs
     id="defs4" />
  <title
     id="title1">Bienenzuchtverein Grünberg und Umgebung e.V. - korrigiert</title>
  <desc
     id="desc1">Logo als Vektor: Bienenflügel freigestellt, Waben mit einheitlicher Linienstaerke, Schrift neu gesetzt und positioniert.</desc>
  <rect
     width="100%"
     height="100%"
     fill="#ffffff"
     id="rect1" />
  <g
     id="bildmarke-und-skyline">
    <path
       d="M343.0,835.0 L320.0,849.0 L304.0,854.0 L329.0,857.0 L334.0,852.0 Z M246.0,787.0 L244.0,788.0 L243.0,810.0 L255.0,860.0 L254.0,885.0 L250.0,895.0 L255.0,887.0 L259.0,859.0 L253.0,824.0 L252.0,804.0 Z M344.0,790.0 L341.0,786.0 L323.0,803.0 L296.0,817.0 L266.0,823.0 L275.0,836.0 L284.0,844.0 L313.0,838.0 L331.0,828.0 L347.0,814.0 L347.0,803.0 Z M240.0,766.0 L230.0,784.0 L217.0,800.0 L214.0,816.0 L207.0,831.0 L190.0,854.0 L209.0,832.0 L219.0,815.0 L226.0,794.0 L231.0,786.0 L242.0,776.0 Z M243.0,749.0 L221.0,783.0 L195.0,807.0 L175.0,811.0 L162.0,810.0 L146.0,806.0 L124.0,792.0 L118.0,795.0 L129.0,805.0 L150.0,814.0 L161.0,816.0 L182.0,816.0 L193.0,813.0 L201.0,809.0 L218.0,793.0 L231.0,774.0 Z M326.0,747.0 L337.0,765.0 L343.0,769.0 L376.0,803.0 L398.0,816.0 L405.0,818.0 L408.0,817.0 L395.0,812.0 L382.0,803.0 L372.0,793.0 L354.0,768.0 L343.0,757.0 Z M317.0,741.0 L299.0,758.0 L279.0,769.0 L260.0,775.0 L246.0,776.0 L256.0,803.0 L265.0,804.0 L275.0,802.0 L295.0,795.0 L313.0,785.0 L328.0,773.0 L333.0,767.0 Z M312.0,730.0 L321.0,738.0 L326.0,736.0 L341.0,736.0 L359.0,742.0 L381.0,746.0 L410.0,746.0 L413.0,744.0 L385.0,744.0 L370.0,741.0 L354.0,733.0 L331.0,733.0 Z M304.0,729.0 L293.0,725.0 L285.0,725.0 L271.0,739.0 L254.0,740.0 L246.0,751.0 L245.0,759.0 L266.0,754.0 L293.0,740.0 L304.0,731.0 Z M47.0,745.0 L50.0,757.0 L55.0,766.0 L72.0,782.0 L93.0,790.0 L116.0,790.0 L141.0,782.0 L193.0,754.0 L220.0,743.0 L213.0,744.0 L181.0,756.0 L136.0,778.0 L124.0,782.0 L95.0,783.0 L74.0,774.0 L66.0,767.0 L58.0,755.0 L55.0,745.0 L56.0,733.0 L60.0,725.0 L66.0,719.0 L75.0,714.0 L96.0,709.0 L131.0,709.0 L176.0,715.0 L228.0,727.0 L194.0,715.0 L156.0,706.0 L128.0,702.0 L92.0,702.0 L77.0,705.0 L67.0,709.0 L57.0,716.0 L49.0,728.0 Z M293.0,688.0 L291.0,689.0 L289.0,698.0 Z M258.0,677.0 L248.0,680.0 L234.0,688.0 L223.0,702.0 L223.0,712.0 L227.0,720.0 L238.0,729.0 L254.0,734.0 L265.0,734.0 L272.0,731.0 L280.0,720.0 L285.0,705.0 L285.0,693.0 L280.0,683.0 L275.0,679.0 L269.0,677.0 Z M150.0,678.0 L162.0,678.0 L180.0,685.0 L193.0,694.0 L212.0,715.0 L221.0,718.0 L219.0,707.0 L193.0,686.0 L181.0,680.0 L167.0,676.0 L152.0,676.0 Z M218.0,660.0 L212.0,663.0 L211.0,676.0 L212.0,678.0 L217.0,679.0 L221.0,674.0 L221.0,666.0 Z M261.0,662.0 L252.0,663.0 L248.0,661.0 L241.0,654.0 L239.0,648.0 L228.0,651.0 L221.0,656.0 L225.0,665.0 L225.0,673.0 L218.0,684.0 L225.0,688.0 L236.0,679.0 L251.0,672.0 L261.0,670.0 Z M243.0,646.0 L245.0,653.0 L250.0,658.0 L260.0,658.0 L261.0,655.0 L255.0,648.0 L247.0,645.0 Z M172.0,631.0 L171.0,635.0 L174.0,638.0 L181.0,634.0 L191.0,634.0 L201.0,637.0 L219.0,648.0 L210.0,640.0 L196.0,632.0 L184.0,629.0 Z M298.0,604.0 L286.0,619.0 L279.0,641.0 L279.0,676.0 L286.0,685.0 L288.0,685.0 L290.0,676.0 L285.0,655.0 L285.0,636.0 L289.0,620.0 Z M250.0,594.0 L247.0,594.0 L240.0,601.0 L235.0,611.0 L232.0,626.0 L233.0,642.0 L233.0,631.0 L237.0,614.0 L246.0,602.0 L248.0,603.0 L252.0,600.0 L252.0,596.0 Z M398.0,42.0 L369.0,304.0 L367.0,312.0 L342.0,318.0 L342.0,587.0 L344.0,586.0 L346.0,579.0 L346.0,322.0 L348.0,320.0 L369.0,316.0 L372.0,313.0 L397.0,80.0 L401.0,71.0 L427.0,307.0 L430.0,310.0 L445.0,314.0 L448.0,319.0 L448.0,515.0 L561.0,517.0 L591.0,465.0 L594.0,465.0 L628.0,563.0 L632.0,562.0 L695.0,461.0 L698.0,461.0 L728.0,551.0 L731.0,551.0 L794.0,441.0 L800.0,395.0 L803.0,390.0 L827.0,396.0 L829.0,398.0 L830.0,433.0 L834.0,434.0 L1027.0,435.0 L1075.0,545.0 L1089.0,573.0 L1092.0,572.0 L1103.0,557.0 L1120.0,556.0 L1161.0,622.0 L1165.0,623.0 L1190.0,610.0 L1221.0,627.0 L1225.0,627.0 L1229.0,467.0 L1231.0,465.0 L1307.0,461.0 L1334.0,333.0 L1336.0,335.0 L1372.0,453.0 L1418.0,457.0 L1420.0,459.0 L1436.0,597.0 L1438.0,606.0 L1441.0,605.0 L1424.0,456.0 L1421.0,453.0 L1376.0,450.0 L1374.0,448.0 L1335.0,320.0 L1332.0,320.0 L1308.0,440.0 L1303.0,458.0 L1229.0,461.0 L1225.0,464.0 L1222.0,619.0 L1219.0,621.0 L1191.0,606.0 L1164.0,618.0 L1124.0,553.0 L1101.0,553.0 L1093.0,564.0 L1090.0,566.0 L1088.0,564.0 L1029.0,430.0 L837.0,430.0 L833.0,427.0 L833.0,394.0 L803.0,386.0 L798.0,386.0 L790.0,440.0 L736.0,535.0 L730.0,542.0 L699.0,452.0 L696.0,452.0 L632.0,554.0 L629.0,554.0 L595.0,456.0 L591.0,457.0 L558.0,513.0 L453.0,512.0 L451.0,510.0 L452.0,317.0 L451.0,312.0 L432.0,306.0 L430.0,298.0 L401.0,42.0 Z"
       fill="#000000"
       fill-rule="evenodd"
       id="path1" />
    <path
       d="M312.0,730.0 L321.0,738.0 L326.0,736.0 L341.0,736.0 L359.0,742.0 L381.0,746.0 L410.0,746.0 L413.0,744.0 L385.0,744.0 L370.0,741.0 L354.0,733.0 L331.0,733.0 Z M293.0,688.0 L291.0,689.0 L289.0,698.0 Z M298.0,604.0 L286.0,619.0 L279.0,641.0 L279.0,676.0 L286.0,685.0 L288.0,685.0 L290.0,676.0 L285.0,655.0 L285.0,636.0 L289.0,620.0 Z M410.0,650.0 L404.0,654.0 L404.0,672.0 L402.0,674.0 L402.0,679.0 L397.0,692.0 L388.0,706.0 L380.0,714.0 L371.0,720.0 L357.0,724.0 L326.0,725.0 L312.0,723.0 L309.0,724.0 L310.0,726.0 L334.0,729.0 L356.0,729.0 L374.0,725.0 L383.0,720.0 L392.0,712.0 L405.0,693.0 L409.0,678.0 L412.0,674.0 L412.0,656.0 Z M416.0,565.0 L400.0,556.0 L384.0,555.0 L370.0,560.0 L359.0,568.0 L347.0,580.0 L346.0,585.0 L340.0,589.0 L324.0,615.0 L322.0,616.0 L322.0,619.0 L314.0,632.0 L314.0,635.0 L311.0,638.0 L311.0,641.0 L301.0,660.0 L301.0,665.0 L293.0,681.0 L293.0,687.0 L295.0,686.0 L301.0,674.0 L301.0,671.0 L307.0,662.0 L307.0,659.0 L310.0,656.0 L318.0,638.0 L336.0,608.0 L351.0,588.0 L363.0,576.0 L380.0,565.0 L388.0,563.0 L397.0,564.0 L408.0,570.0 L415.0,578.0 L419.0,587.0 L421.0,599.0 L420.0,612.0 L418.0,614.0 L416.0,624.0 L408.0,636.0 L391.0,652.0 L341.0,677.0 L319.0,691.0 L322.0,692.0 L344.0,680.0 L378.0,666.0 L392.0,659.0 L410.0,646.0 L419.0,635.0 L420.0,631.0 L424.0,626.0 L429.0,607.0 L429.0,592.0 L427.0,584.0 L422.0,573.0 Z"
       fill="#f39200"
       fill-rule="evenodd"
       id="path2" />
  </g>
  <g
     id="schrift"
     fill="#000000">
    <path
       d="m 436.91488,636.912 q -2.00864,0 -3.38297,-1.008 -1.26862,-1.092 -1.26862,-3.696 0,-2.688 1.26862,-3.696 1.37433,-1.008 3.38297,-1.008 1.90293,0 3.27726,1.008 1.37433,1.008 1.37433,3.696 0,2.604 -1.37433,3.696 -1.37433,1.008 -3.27726,1.008 z M 422.43151,690 v -0.84 h 1.37434 q 4.65159,0 6.66023,-1.512 2.00865,-1.512 2.00865,-4.956 v -30.324 q 0,-3.528 -2.00865,-5.04 -2.00864,-1.512 -6.66023,-1.512 h -0.31716 v -0.84 h 18.92353 v 37.296 q 0,3.696 2.00864,5.292 2.00864,1.596 6.66023,1.596 h 1.37434 V 690 Z m 71.70699,0.84 q -11.84042,0 -18.50065,-6.048 -6.55452,-6.048 -6.55452,-16.968 0,-11.76 6.13165,-17.724 6.13164,-5.964 17.33775,-5.964 10.25465,0 16.06914,5.04 5.92021,5.04 5.92021,15.036 v 2.016 h -35.2041 q 0.10572,12.852 3.48869,18.312 3.4887,5.46 11.62898,5.46 5.92021,0 10.04321,-2.604 4.12301,-2.604 5.18019,-7.728 1.26861,0.168 1.90292,1.008 0.63431,0.84 0.63431,1.764 0,1.68 -2.00864,3.696 -2.00864,1.932 -6.02593,3.36 -3.91157,1.344 -10.04321,1.344 z m 9.72606,-25.452 q 0,-11.004 -2.64295,-15.708 -2.64295,-4.704 -8.88032,-4.704 -6.4488,0 -9.51462,4.704 -2.9601,4.704 -3.48869,15.708 z M 532.22717,690 v -0.84 h 0.84575 q 4.96874,0 6.76595,-1.68 1.90292,-1.68 1.90292,-6.048 v -28.056 q 0,-4.284 -1.7972,-5.88 -1.79721,-1.68 -6.66024,-1.68 h -0.52859 v -0.84 h 18.81781 v 7.896 h 0.21143 q 1.48006,-3.948 4.12301,-5.796 2.64295,-1.848 5.70877,-2.352 3.17154,-0.588 5.81449,-0.588 9.4089,0 13.95478,3.948 4.65159,3.864 4.65159,12.516 v 20.832 q 0,4.368 1.69149,6.048 1.69148,1.68 6.23736,1.68 h 0.52859 V 690 h -18.39493 v -32.256 q 0,-5.46 -2.53724,-8.904 -2.53723,-3.444 -8.77459,-3.444 -4.96875,0 -7.82313,2.1 -2.85439,2.1 -4.12301,5.46 -1.16289,3.276 -1.16289,6.888 v 21.588 q 0,4.368 1.7972,6.048 1.79721,1.68 6.66024,1.68 h 0.52859 V 690 Z m 105.53682,0.84 q -11.84042,0 -18.50065,-6.048 -6.55452,-6.048 -6.55452,-16.968 0,-11.76 6.13165,-17.724 6.13164,-5.964 17.33775,-5.964 10.25465,0 16.06914,5.04 5.92021,5.04 5.92021,15.036 v 2.016 h -35.2041 q 0.10572,12.852 3.48869,18.312 3.4887,5.46 11.62899,5.46 5.9202,0 10.04321,-2.604 4.123,-2.604 5.18018,-7.728 1.26862,0.168 1.90292,1.008 0.63431,0.84 0.63431,1.764 0,1.68 -2.00864,3.696 -2.00864,1.932 -6.02593,3.36 -3.91156,1.344 -10.04321,1.344 z m 9.72606,-25.452 q 0,-11.004 -2.64295,-15.708 -2.64295,-4.704 -8.88031,-4.704 -6.4488,0 -9.51463,4.704 -2.9601,4.704 -3.48869,15.708 z M 675.85267,690 v -0.84 h 0.84574 q 4.96875,0 6.76595,-1.68 1.90293,-1.68 1.90293,-6.048 v -28.056 q 0,-4.284 -1.79721,-5.88 -1.7972,-1.68 -6.66023,-1.68 h -0.52859 v -0.84 h 18.8178 v 7.896 h 0.21144 q 1.48005,-3.948 4.123,-5.796 2.64295,-1.848 5.70877,-2.352 3.17154,-0.588 5.81449,-0.588 9.40891,0 13.95478,3.948 4.65159,3.864 4.65159,12.516 v 20.832 q 0,4.368 1.69149,6.048 1.69149,1.68 6.23736,1.68 h 0.5286 V 690 h -18.39494 v -32.256 q 0,-5.46 -2.53723,-8.904 -2.53723,-3.444 -8.7746,-3.444 -4.96874,0 -7.82313,2.1 -2.85438,2.1 -4.123,5.46 -1.1629,3.276 -1.1629,6.888 v 21.588 q 0,4.368 1.79721,6.048 1.7972,1.68 6.66023,1.68 h 0.52859 V 690 Z m 79.10732,0 v -0.84 l 31.92684,-42.924 h -16.49201 q -6.4488,0 -9.19746,1.932 -2.74867,1.932 -3.4887,7.14 l -0.21143,1.596 h -1.05719 l 1.05719,-11.928 h 40.48999 v 0.84 l -31.92684,42.924 h 18.60637 q 6.55452,0 9.30319,-2.184 2.74867,-2.268 3.38297,-8.148 l 0.21144,-2.016 h 1.05718 L 797.98722,690 Z m 88.93901,0.84 q -9.30318,0 -13.95478,-3.864 -4.54587,-3.948 -4.54587,-12.6 v -21 q 0,-4.284 -1.90292,-5.88 -1.79721,-1.68 -6.76596,-1.68 h -0.31715 v -0.84 h 18.92352 v 29.82 q 0,7.98 2.22008,11.424 2.22008,3.444 8.03457,3.444 7.08311,0 10.5718,-4.368 3.59441,-4.452 3.59441,-12.6 v -19.32 q 0,-4.284 -1.90292,-5.88 -1.79721,-1.68 -6.76595,-1.68 h -0.31716 v -0.84 h 18.92353 v 36.708 q 0,4.284 1.90292,5.88 1.90292,1.596 6.76595,1.596 h 0.31716 V 690 h -18.1835 v -11.508 h -0.21144 q -0.84574,4.284 -2.74867,6.804 -1.7972,2.436 -4.22872,3.612 -2.32579,1.176 -4.86302,1.512 -2.43152,0.42 -4.54588,0.42 z m 76.78151,0 q -7.18883,0 -12.68617,-2.268 -5.49733,-2.352 -8.56315,-7.56 -3.06583,-5.208 -3.06583,-13.692 0,-8.652 3.06583,-13.692 3.17154,-5.124 8.45744,-7.308 5.2859,-2.184 11.94613,-2.184 4.44016,0 8.66888,0.924 4.33444,0.924 7.08311,2.856 2.74866,1.848 2.74866,4.956 0,2.772 -2.43151,3.948 -2.43152,1.176 -6.97739,1.176 0,-6.72 -1.90292,-9.828 -1.79721,-3.192 -7.40026,-3.192 -3.80585,0 -6.76596,1.932 -2.9601,1.848 -4.65159,6.72 -1.58577,4.788 -1.58577,13.776 0,8.232 1.58577,13.272 1.58577,4.956 5.07446,7.14 3.4887,2.184 8.98604,2.184 5.2859,0 8.88031,-2.184 3.70013,-2.268 5.49734,-8.316 2.22007,0.42 2.22007,2.688 0,2.016 -2.00864,4.032 -2.00864,1.932 -6.02593,3.276 -4.01728,1.344 -10.14892,1.344 z M 953.90622,690 v -0.84 h 0.84574 q 4.96875,0 6.76596,-1.68 1.90292,-1.68 1.90292,-6.048 V 634.56 q 0,-4.284 -1.79721,-5.88 -1.7972,-1.68 -6.66023,-1.68 h -0.52859 v -0.84 h 18.92352 v 16.968 q 0,2.436 0,4.872 0,2.436 -0.10571,4.872 h 0.21143 q 1.48005,-3.948 4.123,-5.796 2.64295,-1.848 5.70878,-2.352 3.17154,-0.588 5.81449,-0.588 9.4089,0 13.95478,3.948 4.6516,3.864 4.6516,12.516 v 20.832 q 0,4.368 1.6915,6.048 1.6915,1.68 6.2373,1.68 h 0.5286 V 690 h -18.39491 v -32.256 q 0,-5.46 -2.53723,-8.904 -2.53723,-3.444 -8.77459,-3.444 -4.96875,0 -7.82314,2.1 -2.85438,2.1 -4.123,5.46 -1.1629,3.276 -1.1629,6.888 v 21.588 q 0,4.368 1.79721,6.048 1.79721,1.68 6.66023,1.68 h 0.52859 V 690 Z m 100.03948,0.84 q -8.0346,0 -11.7347,-2.856 -3.5944,-2.94 -3.5944,-10.164 v -32.004 h -8.0346 v -0.84 q 7.506,0 11.4176,-2.268 4.123,-2.268 5.4973,-8.064 h 1.0572 v 10.332 h 14.8005 v 0.84 h -14.8005 v 35.112 q 0,8.736 8.3517,8.736 2.8544,0 6.4488,-1.008 v 0.84 q -1.3743,0.504 -4.123,0.924 -2.7487,0.42 -5.2859,0.42 z m 28.3626,-40.572 q -1.0572,-2.52 -2.5373,-3.444 -1.48,-1.008 -4.123,-1.008 v -0.84 h 26.4295 v 0.84 h -2.5372 q -3.383,0 -5.0745,0.756 -1.5857,0.672 -1.5857,2.436 0,1.344 1.1629,3.948 l 8.3517,18.564 q 1.3743,3.024 2.3258,5.376 1.0572,2.268 2.0086,4.62 1.0572,2.268 2.3258,5.46 0.9515,-2.436 1.6915,-4.284 0.8458,-1.848 2.1144,-4.704 l 10.6775,-24.528 q 0.5286,-1.344 0.8457,-2.352 0.3172,-1.008 0.3172,-1.848 0,-1.932 -1.9029,-2.688 -1.7972,-0.756 -5.8145,-0.756 h -3.4887 v -0.84 h 22.6236 v 0.84 h -2.9601 q -2.9601,0 -4.7573,1.428 -1.6915,1.428 -3.2772,5.124 L 1108.8435,690 h -8.3517 z m 94.4364,40.572 q -11.8404,0 -18.5006,-6.048 -6.5545,-6.048 -6.5545,-16.968 0,-11.76 6.1316,-17.724 6.1316,-5.964 17.3377,-5.964 10.2547,0 16.0692,5.04 5.9202,5.04 5.9202,15.036 v 2.016 h -35.2041 q 0.1057,12.852 3.4887,18.312 3.4887,5.46 11.629,5.46 5.9202,0 10.0432,-2.604 4.123,-2.604 5.1802,-7.728 1.2686,0.168 1.9029,1.008 0.6343,0.84 0.6343,1.764 0,1.68 -2.0086,3.696 -2.0087,1.932 -6.026,3.36 -3.9115,1.344 -10.0432,1.344 z m 9.7261,-25.452 q 0,-11.004 -2.643,-15.708 -2.6429,-4.704 -8.8803,-4.704 -6.4488,0 -9.5146,4.704 -2.9601,4.704 -3.4887,15.708 z m 27.834,24.612 v -0.84 h 1.3743 q 4.6516,0 6.6603,-1.512 2.0086,-1.512 2.0086,-4.956 v -30.324 q 0,-3.528 -2.0086,-5.04 -2.0087,-1.512 -6.6603,-1.512 h -0.3171 v -0.84 h 18.8178 v 8.4 h 0.2114 q 0.7401,-2.184 2.2201,-4.284 1.4801,-2.1 4.4402,-3.528 3.0658,-1.428 8.1402,-1.428 5.2859,0 8.0346,1.68 2.8544,1.596 2.8544,4.536 0,2.52 -2.3258,4.2 -2.2201,1.68 -7.506,1.68 0,-5.208 -2.22,-7.14 -2.2201,-2.016 -4.9688,-2.016 -3.0658,0 -4.863,1.764 -1.7972,1.68 -2.643,4.452 -0.8457,2.688 -1.0572,5.628 -0.2114,2.856 -0.2114,5.292 v 18.06 q 0,3.696 2.0087,5.292 2.0086,1.596 6.6602,1.596 h 1.3743 V 690 Z m 87.6705,0.84 q -11.8404,0 -18.5006,-6.048 -6.5546,-6.048 -6.5546,-16.968 0,-11.76 6.1317,-17.724 6.1316,-5.964 17.3377,-5.964 10.2547,0 16.0692,5.04 5.9202,5.04 5.9202,15.036 v 2.016 h -35.2041 q 0.1057,12.852 3.4887,18.312 3.4887,5.46 11.629,5.46 5.9202,0 10.0432,-2.604 4.123,-2.604 5.1802,-7.728 1.2686,0.168 1.9029,1.008 0.6343,0.84 0.6343,1.764 0,1.68 -2.0087,3.696 -2.0086,1.932 -6.0259,3.36 -3.9115,1.344 -10.0432,1.344 z m 9.7261,-25.452 q 0,-11.004 -2.643,-15.708 -2.6429,-4.704 -8.8803,-4.704 -6.4488,0 -9.5146,4.704 -2.9601,4.704 -3.4887,15.708 z m 42.3174,-28.476 q -2.0087,0 -3.383,-1.008 -1.2686,-1.092 -1.2686,-3.696 0,-2.688 1.2686,-3.696 1.3743,-1.008 3.383,-1.008 1.9029,0 3.2772,1.008 1.3744,1.008 1.3744,3.696 0,2.604 -1.3744,3.696 -1.3743,1.008 -3.2772,1.008 z M 1339.5354,690 v -0.84 h 1.3743 q 4.6516,0 6.6603,-1.512 2.0086,-1.512 2.0086,-4.956 v -30.324 q 0,-3.528 -2.0086,-5.04 -2.0087,-1.512 -6.6603,-1.512 h -0.3171 v -0.84 h 18.9235 v 37.296 q 0,3.696 2.0086,5.292 2.0087,1.596 6.6603,1.596 h 1.3743 V 690 Z m 43.7974,0 v -0.84 h 0.8457 q 4.9688,0 6.766,-1.68 1.9029,-1.68 1.9029,-6.048 v -28.056 q 0,-4.284 -1.7972,-5.88 -1.7972,-1.68 -6.6602,-1.68 h -0.5286 v -0.84 h 18.8178 v 7.896 h 0.2114 q 1.4801,-3.948 4.123,-5.796 2.643,-1.848 5.7088,-2.352 3.1715,-0.588 5.8145,-0.588 9.4089,0 13.9548,3.948 4.6516,3.864 4.6516,12.516 v 20.832 q 0,4.368 1.6914,6.048 1.6915,1.68 6.2374,1.68 h 0.5286 V 690 h -18.3949 v -32.256 q 0,-5.46 -2.5373,-8.904 -2.5372,-3.444 -8.7746,-3.444 -4.9687,0 -7.8231,2.1 -2.8544,2.1 -4.123,5.46 -1.1629,3.276 -1.1629,6.888 v 21.588 q 0,4.368 1.7972,6.048 1.7972,1.68 6.6602,1.68 h 0.5286 V 690 Z"
       id="text2"
       style="font-size:84px;font-family:'Noto Serif Display', 'EB Garamond', 'DejaVu Serif', serif;letter-spacing:7.5"
       aria-label="ienenzuchtverein" />
    <path
       d="m 444.15957,758.52 q -6.9888,0 -11.62792,-2.392 -4.57887,-2.392 -6.86831,-6.656 -2.22919,-4.316 -2.22919,-10.088 0,-5.616 2.22919,-9.88 2.22919,-4.316 6.74781,-6.708 4.57887,-2.444 11.50743,-2.444 6.68756,0 10.30246,1.612 3.6149,1.56 3.6149,4.056 0,1.768 -1.32546,2.704 -1.26522,0.884 -4.27763,1.092 0,-4.836 -1.9882,-6.864 -1.92794,-2.08 -6.56706,-2.08 -4.88012,0 -7.89253,1.872 -2.95217,1.82 -4.33788,5.928 -1.32546,4.056 -1.32546,10.712 0,6.708 1.5062,10.816 1.50621,4.056 4.81987,5.928 3.31366,1.872 8.67576,1.872 1.7472,0 3.3739,-0.208 1.62671,-0.26 2.89192,-0.572 v -12.324 q 0,-3.536 -4.94036,-3.536 h -0.24099 v -0.52 h 15.66456 v 0.52 h -0.241 q -2.34968,0 -3.2534,0.936 -0.90373,0.936 -0.90373,2.808 v 11.024 q -3.01241,1.196 -6.20558,1.82 -3.19316,0.572 -7.1093,0.572 z M 470.19616,758 v -0.52 h 0.78322 q 2.65093,0 3.79565,-0.936 1.14471,-0.936 1.14471,-3.068 v -18.772 q 0,-2.184 -1.14471,-3.12 -1.14472,-0.936 -3.79565,-0.936 h -0.18074 v -0.52 h 10.7242 v 5.2 h 0.12049 q 0.42174,-1.352 1.26522,-2.652 0.84348,-1.3 2.53043,-2.184 1.7472,-0.884 4.63912,-0.884 3.01241,0 4.57887,1.04 1.62671,0.988 1.62671,2.808 0,1.56 -1.32547,2.6 -1.26521,1.04 -4.27763,1.04 0,-3.224 -1.26521,-4.42 -1.26522,-1.248 -2.83167,-1.248 -1.7472,0 -2.77143,1.092 -1.02422,1.04 -1.5062,2.756 -0.48199,1.664 -0.60249,3.484 -0.12049,1.768 -0.12049,3.276 v 11.18 q 0,2.288 1.14471,3.276 1.14472,0.988 3.79565,0.988 h 0.78323 V 758 Z m 49.83467,0.52 q -5.30186,0 -7.95278,-2.392 -2.59068,-2.444 -2.59068,-7.8 v -13 q 0,-2.652 -1.08447,-3.64 -1.02422,-1.04 -3.85589,-1.04 h -0.18075 v -0.52 h 10.78445 v 18.46 q 0,4.94 1.26522,7.072 1.26521,2.132 4.57887,2.132 4.03664,0 6.02483,-2.704 2.04844,-2.756 2.04844,-7.8 v -11.96 q 0,-2.652 -1.08447,-3.64 -1.02422,-1.04 -3.85589,-1.04 h -0.18074 v -0.52 h 10.78444 v 22.724 q 0,2.652 1.08447,3.64 1.08447,0.988 3.8559,0.988 h 0.18074 V 758 h -10.36271 v -7.124 h -0.1205 q -0.48198,2.652 -1.56645,4.212 -1.02422,1.508 -2.40993,2.236 -1.32547,0.728 -2.77143,0.936 -1.38571,0.26 -2.59067,0.26 z m 7.71178,-33.384 q -1.14472,0 -1.92795,-0.624 -0.72298,-0.676 -0.72298,-2.288 0,-1.664 0.72298,-2.288 0.78323,-0.624 1.92795,-0.624 1.08447,0 1.8677,0.624 0.78323,0.624 0.78323,2.288 0,1.612 -0.78323,2.288 -0.78323,0.624 -1.8677,0.624 z m -11.44718,0 q -1.14472,0 -1.92795,-0.624 -0.72298,-0.676 -0.72298,-2.288 0,-1.664 0.72298,-2.288 0.78323,-0.624 1.92795,-0.624 1.08447,0 1.8677,0.624 0.78323,0.624 0.78323,2.288 0,1.612 -0.78323,2.288 -0.78323,0.624 -1.8677,0.624 z M 548.7183,758 v -0.52 h 0.48199 q 2.83167,0 3.85589,-1.04 1.08447,-1.04 1.08447,-3.744 v -17.368 q 0,-2.652 -1.02422,-3.64 -1.02422,-1.04 -3.79564,-1.04 h -0.30125 v -0.52 h 10.7242 v 4.888 h 0.1205 q 0.84348,-2.444 2.34968,-3.588 1.50621,-1.144 3.25341,-1.456 1.80745,-0.364 3.31366,-0.364 5.3621,0 7.95278,2.444 2.65092,2.392 2.65092,7.748 v 12.896 q 0,2.704 0.96398,3.744 0.96397,1.04 3.55465,1.04 h 0.30124 V 758 h -10.48321 v -19.968 q 0,-3.38 -1.44596,-5.512 -1.44596,-2.132 -5.00061,-2.132 -2.83167,0 -4.45837,1.3 -1.62671,1.3 -2.34969,3.38 -0.66273,2.028 -0.66273,4.264 v 13.364 q 0,2.704 1.02422,3.744 1.02422,1.04 3.79565,1.04 h 0.30124 V 758 Z m 64.53524,0.52 q -3.91614,0 -6.20557,-1.924 -2.28944,-1.924 -3.13292,-5.928 h -0.12049 V 758 h -11.02544 v -0.52 h 0.48198 q 2.65093,0 3.79565,-0.936 1.14471,-0.936 1.14471,-3.068 v -30.42 q 0,-2.184 -1.14471,-3.12 Q 595.90203,719 593.2511,719 h -0.18074 v -0.52 h 10.78445 v 9.568 q 0,1.352 0,3.952 0,2.548 -0.1205,5.356 h 0.1205 q 0.84347,-3.952 3.13291,-5.824 2.34968,-1.924 6.38632,-1.924 11.98941,0 11.98941,14.404 0,7.124 -3.13291,10.816 -3.07266,3.692 -8.977,3.692 z m -1.02422,-0.78 q 3.91614,0 5.60309,-3.172 1.68696,-3.172 1.68696,-10.608 0,-7.332 -1.68696,-10.452 -1.68695,-3.12 -5.66334,-3.12 -4.39812,0 -6.38632,3.432 -1.92794,3.432 -1.92794,10.192 0,6.968 2.04844,10.348 2.10869,3.38 6.32607,3.38 z m 39.83343,0.78 q -6.74781,0 -10.54345,-3.744 -3.7354,-3.744 -3.7354,-10.504 0,-7.28 3.4944,-10.972 3.49441,-3.692 9.88073,-3.692 5.84408,0 9.15774,3.12 3.37391,3.12 3.37391,9.308 v 1.248 h -20.06269 q 0.0602,7.956 1.98819,11.336 1.9882,3.38 6.62732,3.38 3.3739,0 5.72359,-1.612 2.34968,-1.612 2.95217,-4.784 0.72297,0.104 1.08446,0.624 0.36149,0.52 0.36149,1.092 0,1.04 -1.14471,2.288 -1.14472,1.196 -3.43416,2.08 -2.22918,0.832 -5.72359,0.832 z m 5.54285,-15.756 q 0,-6.812 -1.50621,-9.724 -1.50621,-2.912 -5.06086,-2.912 -3.67515,0 -5.42235,2.912 -1.68695,2.912 -1.98819,9.724 z M 673.8819,758 v -0.52 h 0.78322 q 2.65093,0 3.79565,-0.936 1.14472,-0.936 1.14472,-3.068 v -18.772 q 0,-2.184 -1.14472,-3.12 -1.14472,-0.936 -3.79565,-0.936 h -0.18074 v -0.52 h 10.7242 v 5.2 h 0.1205 q 0.42173,-1.352 1.26521,-2.652 0.84348,-1.3 2.53043,-2.184 1.7472,-0.884 4.63912,-0.884 3.01242,0 4.57887,1.04 1.62671,0.988 1.62671,2.808 0,1.56 -1.32547,2.6 -1.26521,1.04 -4.27763,1.04 0,-3.224 -1.26521,-4.42 -1.26522,-1.248 -2.83167,-1.248 -1.7472,0 -2.77142,1.092 -1.02423,1.04 -1.50621,2.756 -0.48199,1.664 -0.60249,3.484 -0.12049,1.768 -0.12049,3.276 v 11.18 q 0,2.288 1.14472,3.276 1.14471,0.988 3.79564,0.988 h 0.78323 V 758 Z m 46.70175,12.48 q -6.26582,0 -9.39874,-1.976 -3.13291,-1.924 -3.13291,-5.148 0,-2.704 2.16894,-4.368 2.22919,-1.612 6.74781,-1.664 -2.34968,-0.624 -3.55465,-2.028 -1.14472,-1.404 -1.14472,-2.964 0,-1.508 1.14472,-2.86 1.20497,-1.404 3.67515,-2.132 -2.89192,-0.884 -4.63912,-2.912 -1.68695,-2.08 -1.68695,-5.2 0,-4.472 2.83167,-7.02 2.83167,-2.6 8.49501,-2.6 2.10869,0 3.79564,0.468 1.68696,0.416 3.01242,1.248 0.90372,-0.832 2.40993,-1.82 1.50621,-0.988 3.55465,-0.988 1.7472,0 2.59068,0.832 0.90372,0.78 0.90372,1.924 0,1.04 -0.78322,1.716 -0.72298,0.676 -2.40994,0.676 0,-3.224 -2.65092,-3.224 -0.78323,0 -1.44596,0.26 -0.66273,0.208 -1.68696,0.936 1.74721,1.248 2.65093,3.172 0.90373,1.924 0.90373,4.264 0,3.848 -2.71118,6.396 -2.65092,2.548 -8.13352,2.548 -2.28944,0 -4.21738,-0.468 -1.44596,0.52 -1.9882,1.248 -0.54223,0.728 -0.54223,1.612 0,2.6 4.45837,2.6 h 6.80806 q 5.3621,0 7.65154,2.184 2.28943,2.184 2.28943,5.564 0,4.472 -3.91614,7.072 -3.85589,2.652 -12.04966,2.652 z m 1.32546,-22.984 q 2.95217,0 4.15714,-1.976 1.20496,-2.028 1.20496,-6.448 0,-4.576 -1.26521,-6.76 -1.20497,-2.184 -4.15713,-2.184 -2.89192,0 -4.15714,2.288 -1.26521,2.236 -1.26521,6.708 0,4.316 1.26521,6.344 1.32546,2.028 4.21738,2.028 z m -0.84347,22.464 q 5.72359,0 8.43476,-1.82 2.71118,-1.768 2.71118,-5.252 0,-5.252 -6.74782,-5.252 h -6.50681 q -1.62671,0 -3.13292,0.52 -1.44596,0.52 -2.40993,1.82 -0.90372,1.3 -0.90372,3.588 0,3.172 2.22918,4.784 2.28944,1.612 6.32608,1.612 z m 60.20662,-11.44 q -5.30185,0 -7.95278,-2.392 -2.59068,-2.444 -2.59068,-7.8 v -13 q 0,-2.652 -1.08447,-3.64 -1.02422,-1.04 -3.85589,-1.04 h -0.18074 v -0.52 h 10.78444 v 18.46 q 0,4.94 1.26522,7.072 1.26521,2.132 4.57887,2.132 4.03664,0 6.02483,-2.704 2.04844,-2.756 2.04844,-7.8 v -11.96 q 0,-2.652 -1.08446,-3.64 -1.02423,-1.04 -3.8559,-1.04 h -0.18074 v -0.52 h 10.78445 v 22.724 q 0,2.652 1.08447,3.64 1.08447,0.988 3.85589,0.988 h 0.18074 V 758 h -10.36271 v -7.124 h -0.12049 q -0.48199,2.652 -1.56646,4.212 -1.02422,1.508 -2.40993,2.236 -1.32547,0.728 -2.77142,0.936 -1.38572,0.26 -2.59068,0.26 z M 809.95975,758 v -0.52 h 0.48199 q 2.83167,0 3.85589,-1.04 1.08447,-1.04 1.08447,-3.744 v -17.368 q 0,-2.652 -1.02422,-3.64 -1.02423,-1.04 -3.79565,-1.04 h -0.30124 v -0.52 h 10.7242 v 4.888 h 0.1205 q 0.84347,-2.444 2.34968,-3.588 1.50621,-1.144 3.25341,-1.456 1.80745,-0.364 3.31366,-0.364 5.3621,0 7.95278,2.444 2.65092,2.392 2.65092,7.748 v 12.896 q 0,2.704 0.96397,3.744 0.96398,1.04 3.55465,1.04 h 0.30125 V 758 H 834.9628 v -19.968 q 0,-3.38 -1.44596,-5.512 -1.44596,-2.132 -5.00061,-2.132 -2.83167,0 -4.45838,1.3 -1.6267,1.3 -2.34968,3.38 -0.66273,2.028 -0.66273,4.264 v 13.364 q 0,2.704 1.02422,3.744 1.02422,1.04 3.79564,1.04 h 0.30125 V 758 Z m 58.3899,0.52 q -5.90433,0 -9.03724,-3.692 -3.07267,-3.692 -3.07267,-10.816 0,-14.404 11.98942,-14.404 4.09688,0 6.38632,1.924 2.34968,1.872 3.13291,5.824 h 0.1205 q -0.0602,-2.808 -0.1205,-5.356 0,-2.6 0,-3.952 v -4.992 q 0,-2.184 -1.14472,-3.12 Q 875.45896,719 872.80803,719 h -0.18074 v -0.52 h 10.78444 v 34.996 q 0,2.132 1.14472,3.068 1.14472,0.936 3.79565,0.936 h 0.48198 V 758 h -11.02544 v -7.332 h -0.1205 q -0.78322,4.004 -3.13291,5.928 -2.28943,1.924 -6.20558,1.924 z m 1.02423,-0.78 q 4.27763,0 6.32607,-3.38 2.04844,-3.38 2.04844,-10.348 0,-6.76 -1.98819,-10.192 -1.92795,-3.432 -6.32608,-3.432 -3.97638,0 -5.66334,3.12 -1.68695,3.12 -1.68695,10.452 0,7.436 1.68695,10.608 1.68696,3.172 5.6031,3.172 z m 67.49671,0.78 q -7.1093,0 -11.14594,-2.704 -4.03664,-2.704 -4.03664,-9.048 v -21.84 q 0,-3.536 -4.94036,-3.536 h -0.78323 v -0.52 h 17.53226 v 0.52 h -0.78322 q -4.94037,0 -4.94037,3.692 v 21.996 q 0,4.16 1.26522,6.5 1.32546,2.34 3.6149,3.276 2.28943,0.884 5.18135,0.884 6.14533,0 9.63973,-2.756 3.55465,-2.808 3.55465,-7.696 v -22.36 q 0,-3.536 -4.94036,-3.536 h -0.78323 v -0.52 h 12.04967 v 0.52 h -0.78323 q -4.94036,0 -4.94036,3.744 v 22.256 q 0,5.2 -3.79565,8.164 -3.79564,2.964 -10.96519,2.964 z M 965.73883,758 v -0.52 h 0.48199 q 2.65092,0 3.79564,-0.936 1.14472,-0.936 1.14472,-3.068 v -18.772 q 0,-2.184 -1.14472,-3.12 -1.14472,-0.936 -3.79564,-0.936 h -0.18075 v -0.52 h 10.7242 v 4.94 h 0.1205 q 0.84348,-2.288 2.22919,-3.432 1.44596,-1.196 3.19316,-1.612 1.7472,-0.416 3.55465,-0.416 3.19316,0 5.72359,1.352 2.59068,1.3 3.79564,4.992 h 0.1205 q 0.78323,-2.808 2.16894,-4.16 1.44596,-1.352 3.19316,-1.768 1.7472,-0.416 3.4342,-0.416 10.1819,0 10.1819,10.348 v 13.26 q 0,2.288 1.1447,3.276 1.1448,0.988 3.7957,0.988 h 0.1807 V 758 h -10.7844 v -19.084 q 0,-4.316 -1.3857,-6.292 -1.3857,-1.976 -4.4584,-1.976 -3.49441,0 -5.36211,2.236 -1.80745,2.236 -1.80745,6.396 v 13.936 q 0,2.288 1.14472,3.276 1.14472,0.988 3.79564,0.988 h 0.1807 V 758 h -10.7844 v -19.084 q 0,-4.316 -1.44596,-6.292 -1.38571,-1.976 -4.57887,-1.976 -7.29005,0 -7.29005,9.36 v 13.208 q 0,2.288 1.14472,3.276 1.14472,0.988 3.79564,0.988 h 0.18075 V 758 Z m 74.95817,12.48 q -6.2658,0 -9.3987,-1.976 -3.1329,-1.924 -3.1329,-5.148 0,-2.704 2.1689,-4.368 2.2292,-1.612 6.7478,-1.664 -2.3497,-0.624 -3.5546,-2.028 -1.1447,-1.404 -1.1447,-2.964 0,-1.508 1.1447,-2.86 1.2049,-1.404 3.6751,-2.132 -2.8919,-0.884 -4.6391,-2.912 -1.687,-2.08 -1.687,-5.2 0,-4.472 2.8317,-7.02 2.8317,-2.6 8.495,-2.6 2.1087,0 3.7957,0.468 1.6869,0.416 3.0124,1.248 0.9037,-0.832 2.4099,-1.82 1.5062,-0.988 3.5547,-0.988 1.7472,0 2.5907,0.832 0.9037,0.78 0.9037,1.924 0,1.04 -0.7833,1.716 -0.7229,0.676 -2.4099,0.676 0,-3.224 -2.6509,-3.224 -0.7832,0 -1.446,0.26 -0.6627,0.208 -1.6869,0.936 1.7472,1.248 2.6509,3.172 0.9037,1.924 0.9037,4.264 0,3.848 -2.7111,6.396 -2.651,2.548 -8.1336,2.548 -2.2894,0 -4.2174,-0.468 -1.4459,0.52 -1.9881,1.248 -0.5423,0.728 -0.5423,1.612 0,2.6 4.4584,2.6 h 6.8081 q 5.3621,0 7.6515,2.184 2.2894,2.184 2.2894,5.564 0,4.472 -3.9161,7.072 -3.8559,2.652 -12.0497,2.652 z m 1.3255,-22.984 q 2.9522,0 4.1571,-1.976 1.205,-2.028 1.205,-6.448 0,-4.576 -1.2652,-6.76 -1.205,-2.184 -4.1572,-2.184 -2.8919,0 -4.1571,2.288 -1.2652,2.236 -1.2652,6.708 0,4.316 1.2652,6.344 1.3255,2.028 4.2174,2.028 z m -0.8435,22.464 q 5.7236,0 8.4348,-1.82 2.7111,-1.768 2.7111,-5.252 0,-5.252 -6.7478,-5.252 h -6.5068 q -1.6267,0 -3.1329,0.52 -1.446,0.52 -2.4099,1.82 -0.9038,1.3 -0.9038,3.588 0,3.172 2.2292,4.784 2.2895,1.612 6.3261,1.612 z m 41.3998,-11.44 q -6.7478,0 -10.5434,-3.744 -3.7354,-3.744 -3.7354,-10.504 0,-7.28 3.4944,-10.972 3.4944,-3.692 9.8807,-3.692 5.8441,0 9.1578,3.12 3.3739,3.12 3.3739,9.308 v 1.248 h -20.0627 q 0.06,7.956 1.9882,11.336 1.9882,3.38 6.6273,3.38 3.3739,0 5.7236,-1.612 2.3497,-1.612 2.9521,-4.784 0.723,0.104 1.0845,0.624 0.3615,0.52 0.3615,1.092 0,1.04 -1.1447,2.288 -1.1447,1.196 -3.4342,2.08 -2.2292,0.832 -5.7236,0.832 z m 5.5429,-15.756 q 0,-6.812 -1.5062,-9.724 -1.5062,-2.912 -5.0609,-2.912 -3.6751,0 -5.4223,2.912 -1.687,2.912 -1.9882,9.724 z m 36.4595,15.756 q -3.9162,0 -6.2056,-1.924 -2.2894,-1.924 -3.1329,-5.928 h -0.1205 V 758 h -11.0255 v -0.52 h 0.482 q 2.651,0 3.7957,-0.936 1.1447,-0.936 1.1447,-3.068 v -30.42 q 0,-2.184 -1.1447,-3.12 -1.1447,-0.936 -3.7957,-0.936 h -0.1807 v -0.52 h 10.7844 v 9.568 q 0,1.352 0,3.952 0,2.548 -0.1205,5.356 h 0.1205 q 0.8435,-3.952 3.1329,-5.824 2.3497,-1.924 6.3864,-1.924 11.9894,0 11.9894,14.404 0,7.124 -3.1329,10.816 -3.0727,3.692 -8.977,3.692 z m -1.0243,-0.78 q 3.9162,0 5.6031,-3.172 1.687,-3.172 1.687,-10.608 0,-7.332 -1.687,-10.452 -1.6869,-3.12 -5.6633,-3.12 -4.3981,0 -6.3863,3.432 -1.928,3.432 -1.928,10.192 0,6.968 2.0485,10.348 2.1087,3.38 6.326,3.38 z m 39.2913,0.78 q -5.3019,0 -7.9528,-2.392 -2.5907,-2.444 -2.5907,-7.8 v -13 q 0,-2.652 -1.0844,-3.64 -1.0243,-1.04 -3.8559,-1.04 h -0.1808 v -0.52 h 10.7845 v 18.46 q 0,4.94 1.2652,7.072 1.2652,2.132 4.5789,2.132 4.0366,0 6.0248,-2.704 2.0484,-2.756 2.0484,-7.8 v -11.96 q 0,-2.652 -1.0844,-3.64 -1.0243,-1.04 -3.8559,-1.04 h -0.1808 v -0.52 h 10.7845 v 22.724 q 0,2.652 1.0844,3.64 1.0845,0.988 3.8559,0.988 h 0.1808 V 758 h -10.3627 v -7.124 h -0.1205 q -0.482,2.652 -1.5665,4.212 -1.0242,1.508 -2.4099,2.236 -1.3255,0.728 -2.7714,0.936 -1.3857,0.26 -2.5907,0.26 z m 28.6874,-0.52 v -0.52 h 0.482 q 2.8317,0 3.8559,-1.04 1.0845,-1.04 1.0845,-3.744 v -17.368 q 0,-2.652 -1.0242,-3.64 -1.0242,-1.04 -3.7957,-1.04 h -0.3012 v -0.52 h 10.7242 v 4.888 h 0.1205 q 0.8435,-2.444 2.3497,-3.588 1.5062,-1.144 3.2534,-1.456 1.8074,-0.364 3.3136,-0.364 5.3621,0 7.9528,2.444 2.6509,2.392 2.6509,7.748 v 12.896 q 0,2.704 0.964,3.744 0.964,1.04 3.5547,1.04 h 0.3012 V 758 h -10.4832 v -19.968 q 0,-3.38 -1.446,-5.512 -1.4459,-2.132 -5.0006,-2.132 -2.8316,0 -4.4583,1.3 -1.6268,1.3 -2.3497,3.38 -0.6628,2.028 -0.6628,4.264 v 13.364 q 0,2.704 1.0243,3.744 1.0242,1.04 3.7956,1.04 h 0.3012 V 758 Z m 56.8838,12.48 q -6.2658,0 -9.3988,-1.976 -3.1329,-1.924 -3.1329,-5.148 0,-2.704 2.169,-4.368 2.2292,-1.612 6.7478,-1.664 -2.3497,-0.624 -3.5547,-2.028 -1.1447,-1.404 -1.1447,-2.964 0,-1.508 1.1447,-2.86 1.205,-1.404 3.6752,-2.132 -2.8919,-0.884 -4.6391,-2.912 -1.687,-2.08 -1.687,-5.2 0,-4.472 2.8317,-7.02 2.8316,-2.6 8.495,-2.6 2.1087,0 3.7956,0.468 1.687,0.416 3.0124,1.248 0.9038,-0.832 2.41,-1.82 1.5062,-0.988 3.5546,-0.988 1.7472,0 2.5907,0.832 0.9037,0.78 0.9037,1.924 0,1.04 -0.7832,1.716 -0.723,0.676 -2.4099,0.676 0,-3.224 -2.651,-3.224 -0.7832,0 -1.4459,0.26 -0.6628,0.208 -1.687,0.936 1.7472,1.248 2.651,3.172 0.9037,1.924 0.9037,4.264 0,3.848 -2.7112,6.396 -2.6509,2.548 -8.1335,2.548 -2.2895,0 -4.2174,-0.468 -1.446,0.52 -1.9882,1.248 -0.5422,0.728 -0.5422,1.612 0,2.6 4.4583,2.6 h 6.8081 q 5.3621,0 7.6515,2.184 2.2895,2.184 2.2895,5.564 0,4.472 -3.9162,7.072 -3.8559,2.652 -12.0496,2.652 z m 1.3254,-22.984 q 2.9522,0 4.1572,-1.976 1.2049,-2.028 1.2049,-6.448 0,-4.576 -1.2652,-6.76 -1.2049,-2.184 -4.1571,-2.184 -2.8919,0 -4.1571,2.288 -1.2653,2.236 -1.2653,6.708 0,4.316 1.2653,6.344 1.3254,2.028 4.2173,2.028 z m -0.8434,22.464 q 5.7236,0 8.4347,-1.82 2.7112,-1.768 2.7112,-5.252 0,-5.252 -6.7478,-5.252 h -6.5068 q -1.6267,0 -3.1329,0.52 -1.446,0.52 -2.41,1.82 -0.9037,1.3 -0.9037,3.588 0,3.172 2.2292,4.784 2.2894,1.612 6.3261,1.612 z m 60.7488,-11.44 q -6.7478,0 -10.5435,-3.744 -3.7354,-3.744 -3.7354,-10.504 0,-7.28 3.4944,-10.972 3.4944,-3.692 9.8808,-3.692 5.844,0 9.1577,3.12 3.3739,3.12 3.3739,9.308 v 1.248 h -20.0627 q 0.06,7.956 1.9882,11.336 1.9882,3.38 6.6273,3.38 3.3739,0 5.7236,-1.612 2.3497,-1.612 2.9522,-4.784 0.723,0.104 1.0845,0.624 0.3614,0.52 0.3614,1.092 0,1.04 -1.1447,2.288 -1.1447,1.196 -3.4341,2.08 -2.2292,0.832 -5.7236,0.832 z m 5.5428,-15.756 q 0,-6.812 -1.5062,-9.724 -1.5062,-2.912 -5.0608,-2.912 -3.6752,0 -5.4224,2.912 -1.6869,2.912 -1.9882,9.724 z m 22.4217,15.6 q -3.2535,0 -3.2535,-3.536 0,-3.536 3.2535,-3.536 3.2534,0 3.2534,3.536 0,3.536 -3.2534,3.536 z m 11.8179,-34.164 q -0.6025,-1.612 -1.5665,-2.184 -0.9037,-0.624 -2.7714,-0.624 h -0.7832 v -0.52 h 16.5682 v 0.52 h -1.4459 q -1.928,0 -2.8317,0.468 -0.9037,0.416 -0.9037,1.508 0,1.04 0.6025,2.444 l 7.4708,18.564 q 2.1087,5.148 3.2534,9.048 0.6627,-1.976 1.5664,-4.368 0.9038,-2.444 1.7472,-4.68 l 6.8683,-18.148 q 0.3013,-0.832 0.482,-1.456 0.1808,-0.624 0.1808,-1.144 0,-1.248 -0.964,-1.716 -0.964,-0.52 -3.0727,-0.52 h -3.5546 v -0.52 h 14.7006 v 0.52 h -2.169 q -1.6869,0 -2.7111,0.884 -0.964,0.832 -1.8075,3.12 L 1365.8201,758 h -2.5907 z m 42.2432,34.164 q -3.2534,0 -3.2534,-3.536 0,-3.536 3.2534,-3.536 3.2534,0 3.2534,3.536 0,3.536 -3.2534,3.536 z"
       id="text3"
       style="font-size:52px;font-family:'Noto Serif Display', 'EB Garamond', 'DejaVu Serif', serif;letter-spacing:5"
       aria-label="Grünberg und Umgebung e.V." />
  </g>
  <path
     id="waben-einheitlich"
     d="M 771.0,825.0 L 853.0,825.0 M 853.0,825.0 L 894.0,888.0 M 853.0,951.0 L 894.0,888.0 M 771.0,951.0 L 853.0,951.0 M 771.0,951.0 L 730.0,888.0 M 730.0,888.0 L 771.0,825.0 M 894.0,1014.0 L 853.0,951.0 M 853.0,1077.0 L 894.0,1014.0 M 853.0,1077.0 L 771.0,1077.0 M 771.0,1077.0 L 730.0,1014.0 M 730.0,1014.0 L 771.0,951.0 M 894.0,888.0 L 976.0,888.0 M 1017.0,951.0 L 976.0,888.0 M 976.0,1014.0 L 1017.0,951.0 M 894.0,1014.0 L 976.0,1014.0 M 1017.0,1077.0 L 976.0,1014.0 M 1017.0,1077.0 L 976.0,1140.0 M 976.0,1140.0 L 894.0,1140.0 M 894.0,1140.0 L 853.0,1077.0 M 1017.0,825.0 L 1099.0,825.0 M 1099.0,825.0 L 1140.0,888.0 M 1099.0,951.0 L 1140.0,888.0 M 1017.0,951.0 L 1099.0,951.0 M 976.0,888.0 L 1017.0,825.0 M 1140.0,1014.0 L 1099.0,951.0 M 1099.0,1077.0 L 1140.0,1014.0 M 1099.0,1077.0 L 1017.0,1077.0 M 1140.0,888.0 L 1222.0,888.0 M 1263.0,951.0 L 1222.0,888.0 M 1222.0,1014.0 L 1263.0,951.0 M 1140.0,1014.0 L 1222.0,1014.0 M 1263.0,1077.0 L 1222.0,1014.0 M 1263.0,1077.0 L 1222.0,1140.0 M 1222.0,1140.0 L 1140.0,1140.0 M 1140.0,1140.0 L 1099.0,1077.0 M 1263.0,825.0 L 1345.0,825.0 M 1386.0,888.0 L 1345.0,825.0 M 1345.0,951.0 L 1386.0,888.0 M 1263.0,951.0 L 1345.0,951.0 M 1222.0,888.0 L 1263.0,825.0 M 1386.0,1014.0 L 1345.0,951.0 M 1345.0,1077.0 L 1386.0,1014.0 M 1345.0,1077.0 L 1263.0,1077.0 M 1468.0,888.0 L 1386.0,888.0 M 1509.0,951.0 L 1468.0,888.0 M 1509.0,951.0 L 1468.0,1014.0 M 1386.0,1014.0 L 1468.0,1014.0 M 1468.0,1014.0 L 1509.0,1077.0 M 1509.0,1077.0 L 1468.0,1140.0 M 1468.0,1140.0 L 1386.0,1140.0 M 1386.0,1140.0 L 1345.0,1077.0 M 1386.0,762.0 L 1468.0,762.0 M 1509.0,825.0 L 1468.0,762.0 M 1468.0,888.0 L 1509.0,825.0 M 1345.0,825.0 L 1386.0,762.0 M 1509.0,447.0 L 1591.0,447.0 M 1632.0,510.0 L 1591.0,447.0 M 1591.0,573.0 L 1632.0,510.0 M 1509.0,573.0 L 1591.0,573.0 M 1509.0,573.0 L 1468.0,510.0 M 1468.0,510.0 L 1509.0,447.0 M 1632.0,636.0 L 1591.0,573.0 M 1591.0,699.0 L 1632.0,636.0 M 1509.0,699.0 L 1591.0,699.0 M 1509.0,699.0 L 1468.0,636.0 M 1468.0,636.0 L 1509.0,573.0 M 1632.0,762.0 L 1591.0,699.0 M 1591.0,825.0 L 1632.0,762.0 M 1509.0,825.0 L 1591.0,825.0 M 1468.0,762.0 L 1509.0,699.0 M 1632.0,888.0 L 1591.0,825.0 M 1632.0,888.0 L 1591.0,951.0 M 1591.0,951.0 L 1509.0,951.0 M 1632.0,384.0 L 1714.0,384.0 M 1714.0,384.0 L 1755.0,447.0 M 1755.0,447.0 L 1714.0,510.0 M 1632.0,510.0 L 1714.0,510.0 M 1591.0,447.0 L 1632.0,384.0 M 1714.0,510.0 L 1755.0,573.0 M 1755.0,573.0 L 1714.0,636.0 M 1632.0,636.0 L 1714.0,636.0 M 1714.0,636.0 L 1755.0,699.0 M 1755.0,699.0 L 1714.0,762.0 M 1632.0,762.0 L 1714.0,762.0 M 1714.0,762.0 L 1755.0,825.0 M 1755.0,825.0 L 1714.0,888.0 M 1714.0,888.0 L 1632.0,888.0"
     fill="none"
     stroke="#f39200"
     stroke-width="3.2"
     stroke-linecap="round"
     stroke-linejoin="round" />
  <path
     d="m 984.408,807.352 c -0.056,0.504 -0.112,0.952 -0.112,1.288 0,2.464 1.68,4.088 4.144,4.088 1.792,0 4.144,-0.672 5.936,-1.736 3.36,-1.904 5.32,-4.76 5.32,-7.56 0,-2.072 -0.336,-2.52 -3.528,-4.48 -1.904,-1.232 -2.688,-2.296 -2.688,-3.752 0,-1.904 1.624,-3.584 3.528,-3.584 1.288,0 2.296,0.616 3.472,2.184 1.904,-1.848 1.904,-1.848 2.632,-2.912 -1.12,-1.344 -2.184,-1.904 -3.752,-1.904 -4.088,0 -9.352,4.816 -9.352,8.568 0,1.736 0.896,3.08 3.024,4.592 2.8,1.96 3.192,2.464 3.192,3.864 0,2.016 -2.576,4.368 -4.76,4.368 -1.232,0 -2.184,-0.672 -2.744,-1.904 -0.392,-0.84 -0.504,-1.68 -0.56,-3.64 -0.616,0.504 -1.064,0.784 -1.288,0.952 -0.448,0.28 -0.952,0.56 -1.456,0.896 -0.056,0 -0.56,0.392 -1.008,0.672 z m 36.792,-3.024 c -4.48,3.808 -6.888,5.208 -9.016,5.208 -1.456,0 -2.576,-0.952 -2.968,-2.408 -0.224,-0.896 -0.28,-1.512 -0.28,-3.136 2.576,-1.624 4.144,-2.744 7.448,-5.208 3.08,-2.296 4.2,-4.144 4.2,-6.664 0,-1.96 -1.176,-3.136 -3.192,-3.136 -1.232,0 -2.072,0.28 -3.416,1.008 -2.128,1.232 -4.032,2.744 -5.152,4.088 -2.128,2.576 -4.032,8.736 -4.032,13.272 0,3.304 1.736,5.376 4.592,5.376 3.304,0 7.56,-2.464 11.76,-6.776 z m -12.096,-2.352 c 0.952,-6.048 3.472,-10.64 5.936,-10.64 0.896,0 1.512,0.896 1.512,2.296 0,2.8 -1.624,4.592 -7.448,8.344 z m 25.144,-24.472 c -1.568,1.232 -2.856,2.24 -3.864,2.912 0.392,1.176 0.896,2.128 2.128,3.92 1.568,-1.4 1.736,-1.568 3.64,-3.024 -0.168,-0.336 -0.28,-0.56 -0.728,-1.288 -0.336,-0.672 -0.392,-0.672 -0.84,-1.792 z m 2.128,28 -0.952,0.504 c -3.864,2.128 -4.536,2.408 -5.208,2.408 -0.616,0 -1.008,-0.616 -1.008,-1.568 0,-0.952 0,-0.952 1.848,-8.344 2.072,-8.512 2.072,-8.512 2.072,-8.96 0,-0.336 -0.28,-0.56 -0.672,-0.56 -0.952,0 -4.256,1.848 -8.848,4.928 l -0.112,1.568 c 3.416,-1.848 3.584,-1.904 4.088,-1.904 0.448,0 0.672,0.336 0.672,0.952 0,0.784 -0.168,1.568 -1.008,4.76 -2.632,9.744 -2.632,9.744 -2.632,11.2 0,1.344 0.504,2.24 1.344,2.24 0.952,0 2.464,-0.728 5.432,-2.632 1.064,-0.672 2.128,-1.344 3.192,-2.072 0.504,-0.28 0.896,-0.56 1.568,-0.952 z m 16.352,-0.56 c -4.256,2.576 -6.048,3.472 -6.832,3.472 -0.728,0 -1.624,-1.4 -1.624,-2.632 0,-0.784 0.056,-0.952 1.288,-6.272 0.28,-1.008 0.504,-2.072 0.728,-3.136 0.056,-0.168 0.28,-1.064 0.392,-1.568 1.904,-0.056 3.64,-0.168 5.544,-0.28 l 2.128,-1.624 h -7.168 c 0.28,-1.288 0.392,-1.68 0.56,-2.52 0.168,-0.56 0.56,-2.072 1.344,-5.096 l 0.336,-1.456 -0.952,0.504 c -0.336,0.112 -0.784,0.336 -1.4,0.616 -0.392,0.224 -0.84,0.392 -1.288,0.616 -0.224,0.112 -0.448,0.224 -0.784,0.336 l -0.504,2.296 -0.616,2.688 -0.448,2.016 c -0.504,0.056 -0.84,0.056 -1.008,0.056 h -1.344 c -0.112,0 -0.392,0 -0.84,0.056 -0.28,0.168 -0.504,0.336 -0.56,0.336 -0.168,0.112 -0.504,0.392 -1.064,0.84 -0.112,0.056 -0.392,0.336 -0.84,0.616 h 1.344 2.576 1.232 l -0.56,2.464 c -2.408,9.912 -2.408,9.912 -2.408,11.704 0,1.792 1.176,3.752 2.24,3.752 1.232,0 5.04,-2.296 10.416,-6.384 z m 14.5039,7.056 h 3.528 l 6.104,-0.056 6.44,0.056 h 2.296 l 1.344,-1.512 c -1.68,-0.056 -4.704,-0.392 -5.768,-0.616 -0.896,-0.224 -1.456,-0.84 -1.456,-1.68 0,-0.616 0.112,-1.456 0.336,-2.352 0.224,-0.728 0.784,-3.304 1.624,-7.168 2.296,-10.192 3.64,-15.848 4.592,-19.264 -1.456,0.784 -3.192,1.68 -5.768,3.024 -1.456,0.728 -2.576,1.232 -7.392,3.416 l 1.68,0.84 c 1.288,-0.448 1.736,-0.616 3.024,-1.12 l 1.68,-0.672 c 0.224,-0.112 0.728,-0.28 1.568,-0.56 l -5.32,22.904 c -0.392,1.624 -0.504,1.96 -0.896,2.24 -0.504,0.336 -0.504,0.336 -3.08,0.616 l -1.736,0.224 c -0.168,0 -0.56,0.056 -1.176,0.168 z m 34.1041,-16.688 c -2.24,1.4 -2.296,1.4 -6.216,3.64 -2.52,2.576 -3.64,4.984 -3.64,7.896 0,3.36 2.464,5.712 6.048,5.712 2.856,0 6.776,-1.344 9.576,-3.248 2.912,-1.96 4.704,-5.152 4.704,-8.344 0,-1.12 -0.336,-2.128 -1.008,-3.136 -0.56,-0.896 -0.728,-1.008 -3.248,-3.024 -0.168,-0.112 -0.672,-0.56 -1.232,-1.008 2.184,-1.232 2.744,-1.568 5.656,-3.528 2.24,-2.464 2.968,-3.976 2.968,-5.936 0,-2.576 -2.016,-4.368 -4.928,-4.368 -5.936,0 -11.424,4.48 -11.424,9.296 0,2.072 0.728,3.752 2.744,6.048 z m 1.12,1.008 c 4.088,3.92 4.48,4.592 4.48,7.112 0,3.584 -3.136,7.056 -6.384,7.056 -2.576,0 -4.2,-2.128 -4.2,-5.432 0,-3.864 1.792,-6.384 6.104,-8.736 z m 2.744,-3.416 c -1.568,-1.68 -2.296,-3.416 -2.296,-5.32 0,-3.192 2.184,-5.824 4.816,-5.824 1.736,0 2.912,1.4 2.912,3.584 0,2.968 -2.016,5.768 -5.432,7.56 z m 9.072,18.256 c 2.016,0.952 3.416,1.288 5.376,1.288 5.04,0 11.032,-3.528 14.504,-8.512 2.688,-3.92 4.648,-10.64 4.648,-15.792 0,-5.32 -2.184,-8.4 -5.936,-8.4 -2.8,0 -6.272,1.288 -9.128,3.416 -3.248,2.464 -4.872,5.264 -4.872,8.456 0,4.032 2.632,6.832 6.44,6.832 2.016,0 3.248,-0.56 8.792,-3.92 -0.728,4.2 -1.344,6.384 -2.464,8.624 -2.24,4.312 -5.488,6.832 -8.904,6.832 -1.736,0 -3.192,-0.448 -5.768,-1.792 z m 20.048,-18.76 c -2.24,1.848 -4.536,2.856 -6.44,2.856 -2.688,0 -4.704,-2.464 -4.704,-5.768 0,-4.144 2.464,-7.112 5.992,-7.112 3.304,0 5.32,2.744 5.32,7.224 0,0.784 -0.056,1.456 -0.168,2.8 z m 32.032,-12.376 c -1.568,-0.616 -2.352,-0.784 -3.696,-0.784 -4.536,0 -8.904,2.184 -12.88,6.44 -4.76,5.04 -7.896,12.488 -7.896,18.592 0,5.152 2.464,8.176 6.608,8.176 7.056,0 13.72,-5.488 13.72,-11.312 0,-3.976 -2.688,-6.72 -6.608,-6.72 -1.4,0 -2.408,0.224 -3.976,0.84 -2.408,1.456 -4.088,2.464 -5.04,2.968 0.896,-4.368 1.848,-7 3.416,-9.632 2.632,-4.368 6.272,-7 9.688,-7 1.568,0 2.688,0.448 4.256,1.568 z m -19.936,20.104 c 2.632,-1.904 4.256,-2.52 6.272,-2.52 3.024,0 5.208,2.408 5.208,5.824 0,3.64 -2.8,6.832 -6.104,6.832 -3.472,0 -5.6,-2.912 -5.6,-7.616 0,-0.84 0.056,-1.4 0.224,-2.52 z"
     id="text4"
     style="font-style:italic;font-size:56px;font-family:Z003, 'URW Chancery L', cursive;fill:#f39200"
     aria-label="seit 1896" />
</svg>
